<svg id="visual" viewBox="0 0 540 960" width="540" height="960" xmlns="http://www.w3.org/2000/svg" xmlns:xlink="http://www.w3.org/1999/xlink" version="1.1"><path d="M507 960L507.8 946.7C508.7 933.3 510.3 906.7 511.2 880C512 853.3 512 826.7 511.2 800C510.3 773.3 508.7 746.7 507.8 720C507 693.3 507 666.7 507 640C507 613.3 507 586.7 507.8 560C508.7 533.3 510.3 506.7 510.3 480C510.3 453.3 508.7 426.7 507.8 400C507 373.3 507 346.7 507 320C507 293.3 507 266.7 507.8 240C508.7 213.3 510.3 186.7 511.2 160C512 133.3 512 106.7 511.2 80C510.3 53.3 508.7 26.7 507.8 13.3L507 0L540 0L540 13.3C540 26.7 540 53.3 540 80C540 106.7 540 133.3 540 160C540 186.7 540 213.3 540 240C540 266.7 540 293.3 540 320C540 346.7 540 373.3 540 400C540 426.7 540 453.3 540 480C540 506.7 540 533.3 540 560C540 586.7 540 613.3 540 640C540 666.7 540 693.3 540 720C540 746.7 540 773.3 540 800C540 826.7 540 853.3 540 880C540 906.7 540 933.3 540 946.7L540 960Z" fill="#000d1b"></path><path d="M409 960L407.3 946.7C405.7 933.3 402.3 906.7 403.3 880C404.3 853.3 409.7 826.7 409.7 800C409.7 773.3 404.3 746.7 399.8 720C395.3 693.3 391.7 666.7 394.3 640C397 613.3 406 586.7 410.5 560C415 533.3 415 506.7 412.3 480C409.7 453.3 404.3 426.7 403.3 400C402.3 373.3 405.7 346.7 404.7 320C403.7 293.3 398.3 266.7 393 240C387.7 213.3 382.3 186.7 386.8 160C391.3 133.3 405.7 106.7 407.5 80C409.3 53.3 398.7 26.7 393.3 13.3L388 0L508 0L508.8 13.3C509.7 26.7 511.3 53.3 512.2 80C513 106.7 513 133.3 512.2 160C511.3 186.7 509.7 213.3 508.8 240C508 266.7 508 293.3 508 320C508 346.7 508 373.3 508.8 400C509.7 426.7 511.3 453.3 511.3 480C511.3 506.7 509.7 533.3 508.8 560C508 586.7 508 613.3 508 640C508 666.7 508 693.3 508.8 720C509.7 746.7 511.3 773.3 512.2 800C513 826.7 513 853.3 512.2 880C511.3 906.7 509.7 933.3 508.8 946.7L508 960Z" fill="#00101f"></path><path d="M377 960L374.3 946.7C371.7 933.3 366.3 906.7 366.3 880C366.3 853.3 371.7 826.7 371.7 800C371.7 773.3 366.3 746.7 362.7 720C359 693.3 357 666.7 358.8 640C360.7 613.3 366.3 586.7 370.8 560C375.3 533.3 378.7 506.7 377.7 480C376.7 453.3 371.3 426.7 370.5 400C369.7 373.3 373.3 346.7 371.5 320C369.7 293.3 362.3 266.7 356 240C349.7 213.3 344.3 186.7 348 160C351.7 133.3 364.3 106.7 367 80C369.7 53.3 362.3 26.7 358.7 13.3L355 0L389 0L394.3 13.3C399.7 26.7 410.3 53.3 408.5 80C406.7 106.7 392.3 133.3 387.8 160C383.3 186.7 388.7 213.3 394 240C399.3 266.7 404.7 293.3 405.7 320C406.7 346.7 403.3 373.3 404.3 400C405.3 426.7 410.7 453.3 413.3 480C416 506.7 416 533.3 411.5 560C407 586.7 398 613.3 395.3 640C392.7 666.7 396.3 693.3 400.8 720C405.3 746.7 410.7 773.3 410.7 800C410.7 826.7 405.3 853.3 404.3 880C403.3 906.7 406.7 933.3 408.3 946.7L410 960Z" fill="#021b31"></path><path d="M231 960L231 946.7C231 933.3 231 906.7 231 880C231 853.3 231 826.7 230.2 800C229.3 773.3 227.7 746.7 229.5 720C231.3 693.3 236.7 666.7 239.3 640C242 613.3 242 586.7 244.7 560C247.3 533.3 252.7 506.7 255.3 480C258 453.3 258 426.7 255.3 400C252.7 373.3 247.3 346.7 247.3 320C247.3 293.3 252.7 266.7 249 240C245.3 213.3 232.7 186.7 230.8 160C229 133.3 238 106.7 240.8 80C243.7 53.3 240.3 26.7 238.7 13.3L237 0L356 0L359.7 13.3C363.3 26.7 370.7 53.3 368 80C365.3 106.7 352.7 133.3 349 160C345.3 186.7 350.7 213.3 357 240C363.3 266.7 370.7 293.3 372.5 320C374.3 346.7 370.7 373.3 371.5 400C372.3 426.7 377.7 453.3 378.7 480C379.7 506.7 376.3 533.3 371.8 560C367.3 586.7 361.7 613.3 359.8 640C358 666.7 360 693.3 363.7 720C367.3 746.7 372.7 773.3 372.7 800C372.7 826.7 367.3 853.3 367.3 880C367.3 906.7 372.7 933.3 375.3 946.7L378 960Z" fill="#00315b"></path><path d="M166 960L166 946.7C166 933.3 166 906.7 167 880C168 853.3 170 826.7 168.3 800C166.7 773.3 161.3 746.7 161.3 720C161.3 693.3 166.7 666.7 167.5 640C168.3 613.3 164.7 586.7 164.7 560C164.7 533.3 168.3 506.7 171 480C173.7 453.3 175.3 426.7 174.3 400C173.3 373.3 169.7 346.7 169.7 320C169.7 293.3 173.3 266.7 171.7 240C170 213.3 163 186.7 161.2 160C159.3 133.3 162.7 106.7 166.2 80C169.7 53.3 173.3 26.7 175.2 13.3L177 0L238 0L239.7 13.3C241.3 26.7 244.7 53.3 241.8 80C239 106.7 230 133.3 231.8 160C233.7 186.7 246.3 213.3 250 240C253.7 266.7 248.3 293.3 248.3 320C248.3 346.7 253.7 373.3 256.3 400C259 426.7 259 453.3 256.3 480C253.7 506.7 248.3 533.3 245.7 560C243 586.7 243 613.3 240.3 640C237.7 666.7 232.3 693.3 230.5 720C228.7 746.7 230.3 773.3 231.2 800C232 826.7 232 853.3 232 880C232 906.7 232 933.3 232 946.7L232 960Z" fill="#003664"></path><path d="M139 960L136.3 946.7C133.7 933.3 128.3 906.7 126.7 880C125 853.3 127 826.7 127 800C127 773.3 125 746.7 126.7 720C128.3 693.3 133.7 666.7 133.7 640C133.7 613.3 128.3 586.7 129.3 560C130.3 533.3 137.7 506.7 140.3 480C143 453.3 141 426.7 140 400C139 373.3 139 346.7 139 320C139 293.3 139 266.7 137.3 240C135.7 213.3 132.3 186.7 131.5 160C130.7 133.3 132.3 106.7 135 80C137.7 53.3 141.3 26.7 143.2 13.3L145 0L178 0L176.2 13.3C174.3 26.7 170.7 53.3 167.2 80C163.7 106.7 160.3 133.3 162.2 160C164 186.7 171 213.3 172.7 240C174.3 266.7 170.7 293.3 170.7 320C170.7 346.7 174.3 373.3 175.3 400C176.3 426.7 174.7 453.3 172 480C169.3 506.7 165.7 533.3 165.7 560C165.7 586.7 169.3 613.3 168.5 640C167.7 666.7 162.3 693.3 162.3 720C162.3 746.7 167.7 773.3 169.3 800C171 826.7 169 853.3 168 880C167 906.7 167 933.3 167 946.7L167 960Z" fill="#00315b"></path><path d="M107 960L105.2 946.7C103.3 933.3 99.7 906.7 98.8 880C98 853.3 100 826.7 100 800C100 773.3 98 746.7 98 720C98 693.3 100 666.7 100 640C100 613.3 98 586.7 99.7 560C101.3 533.3 106.7 506.7 107.7 480C108.7 453.3 105.3 426.7 103.7 400C102 373.3 102 346.7 102 320C102 293.3 102 266.7 100.2 240C98.3 213.3 94.7 186.7 93.7 160C92.7 133.3 94.3 106.7 97.8 80C101.3 53.3 106.7 26.7 109.3 13.3L112 0L146 0L144.2 13.3C142.3 26.7 138.7 53.3 136 80C133.3 106.7 131.7 133.3 132.5 160C133.3 186.7 136.7 213.3 138.3 240C140 266.7 140 293.3 140 320C140 346.7 140 373.3 141 400C142 426.7 144 453.3 141.3 480C138.7 506.7 131.3 533.3 130.3 560C129.3 586.7 134.7 613.3 134.7 640C134.7 666.7 129.3 693.3 127.7 720C126 746.7 128 773.3 128 800C128 826.7 126 853.3 127.7 880C129.3 906.7 134.7 933.3 137.3 946.7L140 960Z" fill="#021b31"></path><path d="M53 960L53.8 946.7C54.7 933.3 56.3 906.7 58.2 880C60 853.3 62 826.7 60.3 800C58.7 773.3 53.3 746.7 50.7 720C48 693.3 48 666.7 47 640C46 613.3 44 586.7 45.7 560C47.3 533.3 52.7 506.7 55.3 480C58 453.3 58 426.7 58 400C58 373.3 58 346.7 57.2 320C56.3 293.3 54.7 266.7 53 240C51.3 213.3 49.7 186.7 50.5 160C51.3 133.3 54.7 106.7 56.3 80C58 53.3 58 26.7 58 13.3L58 0L113 0L110.3 13.3C107.7 26.7 102.3 53.3 98.8 80C95.3 106.7 93.7 133.3 94.7 160C95.7 186.7 99.3 213.3 101.2 240C103 266.7 103 293.3 103 320C103 346.7 103 373.3 104.7 400C106.3 426.7 109.7 453.3 108.7 480C107.7 506.7 102.3 533.3 100.7 560C99 586.7 101 613.3 101 640C101 666.7 99 693.3 99 720C99 746.7 101 773.3 101 800C101 826.7 99 853.3 99.8 880C100.7 906.7 104.3 933.3 106.2 946.7L108 960Z" fill="#00101f"></path><path d="M0 960L0 946.7C0 933.3 0 906.7 0 880C0 853.3 0 826.7 0 800C0 773.3 0 746.7 0 720C0 693.3 0 666.7 0 640C0 613.3 0 586.7 0 560C0 533.3 0 506.7 0 480C0 453.3 0 426.7 0 400C0 373.3 0 346.7 0 320C0 293.3 0 266.7 0 240C0 213.3 0 186.7 0 160C0 133.3 0 106.7 0 80C0 53.3 0 26.7 0 13.3L0 0L59 0L59 13.3C59 26.7 59 53.3 57.3 80C55.7 106.7 52.3 133.3 51.5 160C50.7 186.7 52.3 213.3 54 240C55.7 266.7 57.3 293.3 58.2 320C59 346.7 59 373.3 59 400C59 426.7 59 453.3 56.3 480C53.7 506.7 48.3 533.3 46.7 560C45 586.7 47 613.3 48 640C49 666.7 49 693.3 51.7 720C54.3 746.7 59.7 773.3 61.3 800C63 826.7 61 853.3 59.2 880C57.3 906.7 55.7 933.3 54.8 946.7L54 960Z" fill="#000d1b"></path></svg>